<svg width="390" height="68" viewBox="0 0 390 68" fill="none" xmlns="http://www.w3.org/2000/svg">
<g clip-path="url(#clip0_131_928)">
<path d="M15.8892 3.70898H0.890625V7.57226H15.8892V3.70898Z" fill="#831719"/>
<path d="M0.890625 7.57249L0.890625 34.6155H4.7539L4.7539 7.57249H0.890625Z" fill="#831719"/>
<path d="M62.7048 61.6582H40.8887V65.5215H62.7048V61.6582Z" fill="#831719"/>
<path d="M58.8447 58.2497V61.6584H62.708V58.2497H58.8447Z" fill="#831719"/>
<path d="M4.7539 37.1155H0.890625V65.5219H4.7539V37.1155Z" fill="#907636"/>
<path d="M38.1621 37.1152H34.2988V65.5217H38.1621V37.1152Z" fill="#907636"/>
<path d="M0.890625 37.1148L0.890625 40.978H38.16V37.1148H0.890625Z" fill="#907636"/>
<path d="M0.890625 61.6592L0.890625 65.5225H38.16V61.6592H0.890625Z" fill="#907636"/>
<path d="M22.2559 3.70898H18.3926V55.7496H22.2559V3.70898Z" fill="#907636"/>
<path d="M62.7041 3.70898H58.8408V55.7496H62.7041V3.70898Z" fill="#907636"/>
<path d="M18.3926 3.70948V7.57275L62.7067 7.57275V3.70948L18.3926 3.70948Z" fill="#907636"/>
<path d="M18.3926 51.8867V55.75H62.7067V51.8867H18.3926Z" fill="#907636"/>
<path d="M22.2715 55.7501V37.1155H18.4082V55.7501H22.2715Z" fill="#831719"/>
<path d="M38.167 55.7503V37.1157H34.3037V55.7503H38.167Z" fill="#831719"/>
<path d="M34.7529 37.1157H21.5723V40.979H34.7529V37.1157Z" fill="#831719"/>
<path d="M34.7529 51.8875H21.5723V55.7507H34.7529V51.8875Z" fill="#831719"/>
<path d="M72.376 42.0365V10.8801H75.091L89.3339 35.1821H87.9096L102.019 10.8801H104.734V42.0365H101.574V15.8206H102.331L89.3339 38.0751H87.7761L74.6904 15.8206H75.5361V42.0365H72.376ZM125.212 42.3035C121.236 42.3035 118.105 41.1611 115.82 38.8763C113.536 36.5915 112.393 33.2088 112.393 28.7282V10.8801H115.687V28.5947C115.687 32.2741 116.518 34.9892 118.179 36.7399C119.841 38.4906 122.185 39.3659 125.212 39.3659C128.269 39.3659 130.627 38.4906 132.289 36.7399C133.951 34.9892 134.782 32.2741 134.782 28.5947V10.8801H137.986V28.7282C137.986 33.2088 136.844 36.5915 134.559 38.8763C132.304 41.1611 129.188 42.3035 125.212 42.3035ZM145.685 42.0365V10.8801H148.4L169.898 37.9416H168.474V10.8801H171.723V42.0365H169.008L147.555 14.9749H148.979V42.0365H145.685ZM179.668 42.0365V10.8801H182.962V42.0365H179.668ZM187.802 42.0365V39.7665L209.433 12.4824L209.789 13.7287H188.113V10.8801H212.816V13.1501L191.229 40.4341L190.829 39.1879H213.35V42.0365H187.802ZM240.727 42.3035C238.353 42.3035 236.157 41.9178 234.14 41.1463C232.151 40.3451 230.416 39.2324 228.932 37.8081C227.478 36.3838 226.336 34.7073 225.505 32.7786C224.704 30.8498 224.303 28.7431 224.303 26.4583C224.303 24.1735 224.704 22.0667 225.505 20.138C226.336 18.2093 227.493 16.5327 228.977 15.1085C230.46 13.6842 232.196 12.5863 234.184 11.8148C236.202 11.0136 238.398 10.613 240.771 10.613C243.145 10.613 245.311 10.9839 247.27 11.7258C249.258 12.4676 250.949 13.5951 252.344 15.1085L250.296 17.2004C248.991 15.8948 247.552 14.9601 245.979 14.3963C244.406 13.8325 242.715 13.5506 240.905 13.5506C238.976 13.5506 237.196 13.877 235.564 14.5298C233.962 15.153 232.552 16.058 231.335 17.2449C230.149 18.4021 229.214 19.7671 228.531 21.3397C227.879 22.8827 227.552 24.5889 227.552 26.4583C227.552 28.298 227.879 30.0042 228.531 31.5768C229.214 33.1495 230.149 34.5293 231.335 35.7162C232.552 36.8734 233.962 37.7784 235.564 38.4312C237.196 39.0543 238.961 39.3659 240.86 39.3659C242.641 39.3659 244.317 39.0989 245.89 38.5647C247.492 38.0306 248.961 37.1256 250.296 35.8497L252.166 38.3422C250.682 39.6478 248.946 40.6418 246.958 41.3243C244.97 41.9771 242.893 42.3035 240.727 42.3035ZM249.006 37.9416V26.4583H252.166V38.3422L249.006 37.9416ZM272.882 42.3035C270.538 42.3035 268.357 41.9178 266.339 41.1463C264.351 40.3451 262.615 39.2324 261.132 37.8081C259.678 36.3541 258.535 34.6776 257.705 32.7786C256.903 30.8498 256.503 28.7431 256.503 26.4583C256.503 24.1735 256.903 22.0815 257.705 20.1825C258.535 18.2538 259.678 16.5773 261.132 15.153C262.615 13.699 264.351 12.5863 266.339 11.8148C268.327 11.0136 270.508 10.613 272.882 10.613C275.226 10.613 277.392 11.0136 279.381 11.8148C281.369 12.5863 283.09 13.6842 284.544 15.1085C286.027 16.5327 287.17 18.2093 287.971 20.138C288.802 22.0667 289.217 24.1735 289.217 26.4583C289.217 28.7431 288.802 30.8498 287.971 32.7786C287.17 34.7073 286.027 36.3838 284.544 37.8081C283.09 39.2324 281.369 40.3451 279.381 41.1463C277.392 41.9178 275.226 42.3035 272.882 42.3035ZM272.882 39.3659C274.752 39.3659 276.473 39.0543 278.045 38.4312C279.648 37.7784 281.027 36.8734 282.185 35.7162C283.372 34.5293 284.291 33.1643 284.944 31.6213C285.597 30.0487 285.923 28.3277 285.923 26.4583C285.923 24.5889 285.597 22.8827 284.944 21.3397C284.291 19.7671 283.372 18.4021 282.185 17.2449C281.027 16.058 279.648 15.153 278.045 14.5298C276.473 13.877 274.752 13.5506 272.882 13.5506C271.013 13.5506 269.277 13.877 267.675 14.5298C266.072 15.153 264.678 16.058 263.491 17.2449C262.334 18.4021 261.414 19.7671 260.731 21.3397C260.078 22.8827 259.752 24.5889 259.752 26.4583C259.752 28.298 260.078 30.0042 260.731 31.5768C261.414 33.1495 262.334 34.5293 263.491 35.7162C264.678 36.8734 266.072 37.7784 267.675 38.4312C269.277 39.0543 271.013 39.3659 272.882 39.3659ZM294.374 42.0365V10.8801H297.089L311.332 35.1821H309.908L324.017 10.8801H326.732V42.0365H323.572V15.8206H324.329L311.332 38.0751H309.774L296.688 15.8206H297.534V42.0365H294.374ZM337.596 24.8114H354.064V27.6155H337.596V24.8114ZM337.952 39.1879H356.69V42.0365H334.658V10.8801H356.023V13.7287H337.952V39.1879ZM370.797 42.3035C368.483 42.3035 366.257 41.9326 364.121 41.1908C362.014 40.4193 360.382 39.4401 359.225 38.2532L360.516 35.7162C361.614 36.7844 363.082 37.6894 364.922 38.4312C366.791 39.1434 368.75 39.4994 370.797 39.4994C372.756 39.4994 374.343 39.2621 375.56 38.7873C376.806 38.2829 377.711 37.6152 378.275 36.7844C378.868 35.9535 379.165 35.0337 379.165 34.0248C379.165 32.8082 378.809 31.829 378.097 31.0872C377.414 30.3454 376.509 29.7668 375.382 29.3514C374.254 28.9063 373.008 28.5205 371.643 28.1941C370.278 27.8677 368.913 27.5265 367.548 27.1704C366.183 26.7847 364.922 26.2802 363.765 25.6571C362.637 25.034 361.717 24.218 361.005 23.2091C360.323 22.1706 359.982 20.8205 359.982 19.1588C359.982 17.6158 360.382 16.2063 361.183 14.9304C362.014 13.6248 363.275 12.5863 364.967 11.8148C366.658 11.0136 368.824 10.613 371.465 10.613C373.216 10.613 374.951 10.8653 376.672 11.3697C378.394 11.8445 379.877 12.5121 381.123 13.3726L380.011 15.9986C378.675 15.1085 377.251 14.4557 375.738 14.0402C374.254 13.6248 372.815 13.4171 371.42 13.4171C369.551 13.4171 368.008 13.6693 366.791 14.1738C365.575 14.6782 364.67 15.3607 364.076 16.2212C363.513 17.052 363.231 18.0015 363.231 19.0698C363.231 20.2863 363.572 21.2655 364.254 22.0074C364.967 22.7492 365.886 23.3278 367.014 23.7432C368.171 24.1586 369.432 24.5295 370.797 24.8559C372.162 25.1823 373.512 25.5384 374.848 25.9242C376.213 26.3099 377.459 26.8143 378.586 27.4375C379.744 28.0309 380.663 28.8321 381.346 29.841C382.058 30.8498 382.414 32.1703 382.414 33.8023C382.414 35.3156 381.999 36.725 381.168 38.0306C380.337 39.3066 379.061 40.3451 377.34 41.1463C375.649 41.9178 373.468 42.3035 370.797 42.3035Z" fill="#907636"/>
<path d="M71.6416 63.0546L78.0113 49.2073H79.0202L85.39 63.0546H84.302L78.2883 49.8403H78.7235L72.7296 63.0546H71.6416ZM73.9759 59.1576L74.3121 58.3069H82.6007L82.937 59.1576H73.9759ZM89.4863 63.0546V49.2073H94.9659C96.4297 49.2073 97.7155 49.504 98.8233 50.0975C99.9311 50.6909 100.788 51.5086 101.395 52.5504C102.015 53.5923 102.325 54.7858 102.325 56.1309C102.325 57.4761 102.015 58.6696 101.395 59.7115C100.788 60.7533 99.9311 61.5709 98.8233 62.1644C97.7155 62.7579 96.4297 63.0546 94.9659 63.0546H89.4863ZM90.4952 62.1446H94.8867C96.1923 62.1446 97.3266 61.8875 98.2892 61.3731C99.252 60.8588 99.9971 60.1532 100.525 59.2565C101.052 58.3465 101.316 57.3046 101.316 56.1309C101.316 54.9573 101.052 53.9219 100.525 53.0252C99.9971 52.1152 99.252 51.4031 98.2892 50.8888C97.3266 50.3744 96.1923 50.1173 94.8867 50.1173H90.4952V62.1446ZM110.884 63.0546L104.712 49.2073H105.82L111.715 62.4413H111.101L117.016 49.2073H118.064L111.893 63.0546H110.884ZM127.639 63.1535C126.611 63.1535 125.654 62.982 124.771 62.6392C123.9 62.2831 123.136 61.7885 122.476 61.1555C121.83 60.5093 121.329 59.7642 120.973 58.9202C120.617 58.063 120.439 57.1333 120.439 56.1309C120.439 55.1286 120.617 54.2056 120.973 53.3615C121.329 52.5043 121.83 51.7592 122.476 51.1261C123.136 50.4799 123.9 49.9854 124.771 49.6425C125.654 49.2864 126.611 49.1084 127.639 49.1084C128.668 49.1084 129.618 49.2864 130.488 49.6425C131.371 49.9854 132.136 50.4733 132.783 51.1064C133.428 51.7394 133.93 52.4845 134.286 53.3417C134.654 54.1858 134.84 55.1155 134.84 56.1309C134.84 57.1464 134.654 58.0828 134.286 58.94C133.93 59.784 133.428 60.5225 132.783 61.1555C132.136 61.7885 131.371 62.2831 130.488 62.6392C129.618 62.982 128.668 63.1535 127.639 63.1535ZM127.639 62.2237C128.522 62.2237 129.341 62.072 130.092 61.7688C130.844 61.4655 131.497 61.0368 132.051 60.4829C132.605 59.9291 133.032 59.2828 133.337 58.5443C133.653 57.8058 133.811 57.0013 133.811 56.1309C133.811 55.2473 133.653 54.4429 133.337 53.7176C133.032 52.9791 132.605 52.3328 132.051 51.7789C131.497 51.2251 130.844 50.7964 130.092 50.4931C129.341 50.1898 128.522 50.0381 127.639 50.0381C126.755 50.0381 125.938 50.1898 125.186 50.4931C124.434 50.7964 123.775 51.2251 123.208 51.7789C122.654 52.3328 122.219 52.9791 121.902 53.7176C121.599 54.4429 121.447 55.2473 121.447 56.1309C121.447 57.0013 121.599 57.8058 121.902 58.5443C122.219 59.2828 122.654 59.9291 123.208 60.4829C123.775 61.0368 124.434 61.4655 125.186 61.7688C125.938 62.072 126.755 62.2237 127.639 62.2237ZM145.836 63.1535C144.794 63.1535 143.832 62.982 142.948 62.6392C142.064 62.2831 141.293 61.7885 140.634 61.1555C139.987 60.5225 139.486 59.784 139.13 58.94C138.774 58.0828 138.596 57.1464 138.596 56.1309C138.596 55.1155 138.774 54.1858 139.13 53.3417C139.486 52.4845 139.994 51.7394 140.653 51.1064C141.312 50.4733 142.078 49.9854 142.948 49.6425C143.832 49.2864 144.801 49.1084 145.856 49.1084C146.859 49.1084 147.788 49.2667 148.645 49.5832C149.502 49.8997 150.234 50.3744 150.841 51.0075L150.208 51.68C149.601 51.0866 148.936 50.6646 148.21 50.414C147.498 50.1634 146.72 50.0381 145.876 50.0381C144.979 50.0381 144.149 50.1898 143.383 50.4931C142.618 50.7964 141.953 51.2251 141.385 51.7789C140.818 52.3328 140.376 52.9791 140.06 53.7176C139.757 54.456 139.605 55.2605 139.605 56.1309C139.605 57.0013 139.757 57.8058 140.06 58.5443C140.376 59.2828 140.818 59.9291 141.385 60.4829C141.953 61.0368 142.618 61.4655 143.383 61.7688C144.149 62.072 144.979 62.2237 145.876 62.2237C146.693 62.2237 147.464 62.0985 148.19 61.8479C148.928 61.5973 149.601 61.1819 150.208 60.6016L150.782 61.3731C150.162 61.9666 149.417 62.415 148.546 62.7183C147.689 63.0085 146.786 63.1535 145.836 63.1535ZM149.812 61.2742V56.1903H150.782V61.3731L149.812 61.2742ZM154.489 63.0546L160.859 49.2073H161.868L168.238 63.0546H167.15L161.136 49.8403H161.571L155.577 63.0546H154.489ZM156.824 59.1576L157.16 58.3069H165.449L165.785 59.1576H156.824ZM172.334 63.0546V49.2073H177.813C179.277 49.2073 180.563 49.504 181.671 50.0975C182.779 50.6909 183.637 51.5086 184.243 52.5504C184.863 53.5923 185.172 54.7858 185.172 56.1309C185.172 57.4761 184.863 58.6696 184.243 59.7115C183.637 60.7533 182.779 61.5709 181.671 62.1644C180.563 62.7579 179.277 63.0546 177.813 63.0546H172.334ZM173.343 62.1446H177.734C179.04 62.1446 180.175 61.8875 181.137 61.3731C182.1 60.8588 182.845 60.1532 183.372 59.2565C183.9 58.3465 184.163 57.3046 184.163 56.1309C184.163 54.9573 183.9 53.9219 183.372 53.0252C182.845 52.1152 182.1 51.4031 181.137 50.8888C180.175 50.3744 179.04 50.1173 177.734 50.1173H173.343V62.1446ZM196.135 63.1535C195.107 63.1535 194.151 62.982 193.267 62.6392C192.396 62.2831 191.631 61.7885 190.972 61.1555C190.326 60.5093 189.825 59.7642 189.469 58.9202C189.113 58.063 188.935 57.1333 188.935 56.1309C188.935 55.1286 189.113 54.2056 189.469 53.3615C189.825 52.5043 190.326 51.7592 190.972 51.1261C191.631 50.4799 192.396 49.9854 193.267 49.6425C194.151 49.2864 195.107 49.1084 196.135 49.1084C197.164 49.1084 198.113 49.2864 198.984 49.6425C199.868 49.9854 200.632 50.4733 201.278 51.1064C201.925 51.7394 202.426 52.4845 202.782 53.3417C203.152 54.1858 203.336 55.1155 203.336 56.1309C203.336 57.1464 203.152 58.0828 202.782 58.94C202.426 59.784 201.925 60.5225 201.278 61.1555C200.632 61.7885 199.868 62.2831 198.984 62.6392C198.113 62.982 197.164 63.1535 196.135 63.1535ZM196.135 62.2237C197.019 62.2237 197.836 62.072 198.588 61.7688C199.34 61.4655 199.993 61.0368 200.547 60.4829C201.1 59.9291 201.529 59.2828 201.832 58.5443C202.149 57.8058 202.307 57.0013 202.307 56.1309C202.307 55.2473 202.149 54.4429 201.832 53.7176C201.529 52.9791 201.1 52.3328 200.547 51.7789C199.993 51.2251 199.34 50.7964 198.588 50.4931C197.836 50.1898 197.019 50.0381 196.135 50.0381C195.251 50.0381 194.434 50.1898 193.682 50.4931C192.931 50.7964 192.272 51.2251 191.704 51.7789C191.15 52.3328 190.715 52.9791 190.398 53.7176C190.096 54.4429 189.943 55.2473 189.943 56.1309C189.943 57.0013 190.096 57.8058 190.398 58.5443C190.715 59.2828 191.15 59.9291 191.704 60.4829C192.272 61.0368 192.931 61.4655 193.682 61.7688C194.434 62.072 195.251 62.2237 196.135 62.2237ZM212.057 63.1535C211.028 63.1535 210.053 62.982 209.129 62.6392C208.219 62.2831 207.515 61.8281 207.013 61.2742L207.468 60.5225C207.942 61.0105 208.589 61.4259 209.406 61.7688C210.237 62.0985 211.115 62.2633 212.037 62.2633C212.961 62.2633 213.713 62.1446 214.292 61.9072C214.886 61.6566 215.321 61.327 215.598 60.9181C215.889 60.5093 216.033 60.0543 216.033 59.5532C216.033 58.9597 215.875 58.485 215.558 58.1289C215.242 57.7728 214.827 57.4893 214.312 57.2783C213.798 57.0672 213.238 56.8892 212.631 56.7442C212.025 56.5992 211.412 56.4475 210.791 56.2892C210.172 56.1177 209.604 55.9001 209.09 55.6364C208.575 55.3727 208.16 55.0166 207.844 54.5682C207.541 54.1066 207.389 53.5132 207.389 52.7878C207.389 52.1285 207.56 51.5218 207.903 50.9679C208.247 50.414 208.781 49.9656 209.505 49.6227C210.231 49.2799 211.161 49.1084 212.294 49.1084C213.06 49.1084 213.811 49.2205 214.55 49.4447C215.301 49.6688 215.942 49.9722 216.468 50.3547L216.093 51.1657C215.513 50.7701 214.886 50.4799 214.213 50.2953C213.554 50.0975 212.915 49.9986 212.294 49.9986C211.412 49.9986 210.68 50.1238 210.099 50.3744C209.519 50.625 209.09 50.9613 208.813 51.3833C208.536 51.7922 208.397 52.2537 208.397 52.768C208.397 53.3615 208.549 53.8363 208.852 54.1923C209.169 54.5484 209.584 54.8319 210.099 55.0429C210.613 55.254 211.18 55.432 211.8 55.5771C212.421 55.7221 213.034 55.8803 213.64 56.0518C214.247 56.2101 214.807 56.4211 215.321 56.6848C215.835 56.9485 216.251 57.3046 216.567 57.7531C216.884 58.2015 217.042 58.7817 217.042 59.4939C217.042 60.1401 216.864 60.7467 216.508 61.3138C216.152 61.8677 215.605 62.3161 214.866 62.6589C214.142 62.9887 213.204 63.1535 212.057 63.1535ZM226.404 63.0546L232.774 49.2073H233.782L240.152 63.0546H239.064L233.051 49.8403H233.486L227.492 63.0546H226.404ZM228.738 59.1576L229.074 58.3069H237.363L237.699 59.1576H228.738ZM247.888 63.1535C246.859 63.1535 245.884 62.982 244.96 62.6392C244.05 62.2831 243.344 61.8281 242.844 61.2742L243.299 60.5225C243.774 61.0105 244.42 61.4259 245.237 61.7688C246.068 62.0985 246.945 62.2633 247.868 62.2633C248.792 62.2633 249.544 62.1446 250.123 61.9072C250.717 61.6566 251.152 61.327 251.429 60.9181C251.72 60.5093 251.864 60.0543 251.864 59.5532C251.864 58.9597 251.706 58.485 251.39 58.1289C251.073 57.7728 250.658 57.4893 250.143 57.2783C249.629 57.0672 249.069 56.8892 248.462 56.7442C247.855 56.5992 247.242 56.4475 246.622 56.2892C246.003 56.1177 245.435 55.9001 244.921 55.6364C244.407 55.3727 243.991 55.0166 243.675 54.5682C243.372 54.1066 243.22 53.5132 243.22 52.7878C243.22 52.1285 243.391 51.5218 243.734 50.9679C244.076 50.414 244.611 49.9656 245.336 49.6227C246.062 49.2799 246.992 49.1084 248.126 49.1084C248.891 49.1084 249.643 49.2205 250.381 49.4447C251.132 49.6688 251.772 49.9722 252.299 50.3547L251.924 51.1657C251.344 50.7701 250.717 50.4799 250.044 50.2953C249.385 50.0975 248.745 49.9986 248.126 49.9986C247.242 49.9986 246.51 50.1238 245.93 50.3744C245.35 50.625 244.921 50.9613 244.644 51.3833C244.367 51.7922 244.229 52.2537 244.229 52.768C244.229 53.3615 244.381 53.8363 244.683 54.1923C245 54.5484 245.415 54.8319 245.93 55.0429C246.444 55.254 247.012 55.432 247.631 55.5771C248.25 55.7221 248.864 55.8803 249.471 56.0518C250.078 56.2101 250.638 56.4211 251.152 56.6848C251.666 56.9485 252.082 57.3046 252.398 57.7531C252.715 58.2015 252.873 58.7817 252.873 59.4939C252.873 60.1401 252.695 60.7467 252.339 61.3138C251.983 61.8677 251.435 62.3161 250.697 62.6589C249.971 62.9887 249.035 63.1535 247.888 63.1535ZM261.525 63.1535C260.497 63.1535 259.521 62.982 258.598 62.6392C257.688 62.2831 256.982 61.8281 256.481 61.2742L256.936 60.5225C257.411 61.0105 258.057 61.4259 258.874 61.7688C259.705 62.0985 260.582 62.2633 261.505 62.2633C262.429 62.2633 263.181 62.1446 263.761 61.9072C264.354 61.6566 264.789 61.327 265.066 60.9181C265.357 60.5093 265.501 60.0543 265.501 59.5532C265.501 58.9597 265.343 58.485 265.027 58.1289C264.71 57.7728 264.295 57.4893 263.78 57.2783C263.266 57.0672 262.706 56.8892 262.099 56.7442C261.492 56.5992 260.879 56.4475 260.259 56.2892C259.64 56.1177 259.072 55.9001 258.558 55.6364C258.044 55.3727 257.628 55.0166 257.312 54.5682C257.009 54.1066 256.857 53.5132 256.857 52.7878C256.857 52.1285 257.029 51.5218 257.371 50.9679C257.714 50.414 258.248 49.9656 258.973 49.6227C259.699 49.2799 260.629 49.1084 261.763 49.1084C262.528 49.1084 263.28 49.2205 264.018 49.4447C264.769 49.6688 265.409 49.9722 265.937 50.3547L265.561 51.1657C264.981 50.7701 264.354 50.4799 263.681 50.2953C263.022 50.0975 262.382 49.9986 261.763 49.9986C260.879 49.9986 260.147 50.1238 259.567 50.3744C258.987 50.625 258.558 50.9613 258.281 51.3833C258.004 51.7922 257.866 52.2537 257.866 52.768C257.866 53.3615 258.018 53.8363 258.321 54.1923C258.637 54.5484 259.053 54.8319 259.567 55.0429C260.081 55.254 260.649 55.432 261.268 55.5771C261.887 55.7221 262.501 55.8803 263.108 56.0518C263.715 56.2101 264.275 56.4211 264.789 56.6848C265.304 56.9485 265.719 57.3046 266.035 57.7531C266.352 58.2015 266.51 58.7817 266.51 59.4939C266.51 60.1401 266.332 60.7467 265.976 61.3138C265.62 61.8677 265.072 62.3161 264.334 62.6589C263.608 62.9887 262.673 63.1535 261.525 63.1535ZM277.398 63.1535C276.369 63.1535 275.413 62.982 274.529 62.6392C273.659 62.2831 272.894 61.7885 272.235 61.1555C271.588 60.5093 271.087 59.7642 270.731 58.9202C270.375 58.063 270.197 57.1333 270.197 56.1309C270.197 55.1286 270.375 54.2056 270.731 53.3615C271.087 52.5043 271.588 51.7592 272.235 51.1261C272.894 50.4799 273.659 49.9854 274.529 49.6425C275.413 49.2864 276.369 49.1084 277.398 49.1084C278.426 49.1084 279.376 49.2864 280.246 49.6425C281.13 49.9854 281.894 50.4733 282.541 51.1064C283.188 51.7394 283.688 52.4845 284.044 53.3417C284.414 54.1858 284.598 55.1155 284.598 56.1309C284.598 57.1464 284.414 58.0828 284.044 58.94C283.688 59.784 283.188 60.5225 282.541 61.1555C281.894 61.7885 281.13 62.2831 280.246 62.6392C279.376 62.982 278.426 63.1535 277.398 63.1535ZM277.398 62.2237C278.282 62.2237 279.099 62.072 279.851 61.7688C280.602 61.4655 281.255 61.0368 281.809 60.4829C282.363 59.9291 282.792 59.2828 283.095 58.5443C283.411 57.8058 283.57 57.0013 283.57 56.1309C283.57 55.2473 283.411 54.4429 283.095 53.7176C282.792 52.9791 282.363 52.3328 281.809 51.7789C281.255 51.2251 280.602 50.7964 279.851 50.4931C279.099 50.1898 278.282 50.0381 277.398 50.0381C276.514 50.0381 275.696 50.1898 274.945 50.4931C274.193 50.7964 273.534 51.2251 272.967 51.7789C272.413 52.3328 271.977 52.9791 271.661 53.7176C271.358 54.4429 271.206 55.2473 271.206 56.1309C271.206 57.0013 271.358 57.8058 271.661 58.5443C271.977 59.2828 272.413 59.9291 272.967 60.4829C273.534 61.0368 274.193 61.4655 274.945 61.7688C275.696 62.072 276.514 62.2237 277.398 62.2237ZM295.535 63.1535C294.506 63.1535 293.551 62.982 292.667 62.6392C291.796 62.2831 291.038 61.7885 290.392 61.1555C289.746 60.5225 289.245 59.784 288.888 58.94C288.532 58.0828 288.354 57.1464 288.354 56.1309C288.354 55.1155 288.532 54.1858 288.888 53.3417C289.245 52.4845 289.746 51.7394 290.392 51.1064C291.052 50.4733 291.816 49.9854 292.687 49.6425C293.557 49.2864 294.506 49.1084 295.535 49.1084C296.512 49.1084 297.422 49.2667 298.265 49.5832C299.123 49.8997 299.855 50.381 300.461 51.0272L299.828 51.68C299.234 51.0998 298.575 50.6844 297.85 50.4338C297.137 50.1701 296.38 50.0381 295.575 50.0381C294.692 50.0381 293.867 50.1898 293.102 50.4931C292.35 50.7964 291.691 51.2251 291.124 51.7789C290.57 52.3328 290.135 52.9791 289.818 53.7176C289.515 54.456 289.363 55.2605 289.363 56.1309C289.363 57.0013 289.515 57.8058 289.818 58.5443C290.135 59.2828 290.57 59.9291 291.124 60.4829C291.691 61.0368 292.35 61.4655 293.102 61.7688C293.867 62.072 294.692 62.2237 295.575 62.2237C296.38 62.2237 297.137 62.0985 297.85 61.8479C298.575 61.5842 299.234 61.1555 299.828 60.5621L300.461 61.2149C299.855 61.8611 299.123 62.349 298.265 62.6787C297.422 62.9952 296.512 63.1535 295.535 63.1535ZM305.422 63.0546V49.2073H306.431V63.0546H305.422ZM310.525 63.0546L316.895 49.2073H317.903L324.273 63.0546H323.185L317.172 49.8403H317.607L311.613 63.0546H310.525ZM312.859 59.1576L313.195 58.3069H321.484L321.82 59.1576H312.859ZM328.369 63.0546V49.2073H333.849C335.313 49.2073 336.599 49.504 337.706 50.0975C338.814 50.6909 339.672 51.5086 340.278 52.5504C340.899 53.5923 341.208 54.7858 341.208 56.1309C341.208 57.4761 340.899 58.6696 340.278 59.7115C339.672 60.7533 338.814 61.5709 337.706 62.1644C336.599 62.7579 335.313 63.0546 333.849 63.0546H328.369ZM329.378 62.1446H333.77C335.075 62.1446 336.21 61.8875 337.172 61.3731C338.135 60.8588 338.881 60.1532 339.408 59.2565C339.935 58.3465 340.199 57.3046 340.199 56.1309C340.199 54.9573 339.935 53.9219 339.408 53.0252C338.881 52.1152 338.135 51.4031 337.172 50.8888C336.21 50.3744 335.075 50.1173 333.77 50.1173H329.378V62.1446ZM352.17 63.1535C351.142 63.1535 350.186 62.982 349.302 62.6392C348.432 62.2831 347.666 61.7885 347.007 61.1555C346.361 60.5093 345.86 59.7642 345.504 58.9202C345.148 58.063 344.97 57.1333 344.97 56.1309C344.97 55.1286 345.148 54.2056 345.504 53.3615C345.86 52.5043 346.361 51.7592 347.007 51.1261C347.666 50.4799 348.432 49.9854 349.302 49.6425C350.186 49.2864 351.142 49.1084 352.17 49.1084C353.199 49.1084 354.149 49.2864 355.019 49.6425C355.903 49.9854 356.667 50.4733 357.314 51.1064C357.96 51.7394 358.461 52.4845 358.817 53.3417C359.187 54.1858 359.371 55.1155 359.371 56.1309C359.371 57.1464 359.187 58.0828 358.817 58.94C358.461 59.784 357.96 60.5225 357.314 61.1555C356.667 61.7885 355.903 62.2831 355.019 62.6392C354.149 62.982 353.199 63.1535 352.17 63.1535ZM352.17 62.2237C353.054 62.2237 353.872 62.072 354.623 61.7688C355.375 61.4655 356.028 61.0368 356.582 60.4829C357.136 59.9291 357.565 59.2828 357.868 58.5443C358.184 57.8058 358.342 57.0013 358.342 56.1309C358.342 55.2473 358.184 54.4429 357.868 53.7176C357.565 52.9791 357.136 52.3328 356.582 51.7789C356.028 51.2251 355.375 50.7964 354.623 50.4931C353.872 50.1898 353.054 50.0381 352.17 50.0381C351.286 50.0381 350.469 50.1898 349.718 50.4931C348.966 50.7964 348.307 51.2251 347.739 51.7789C347.185 52.3328 346.75 52.9791 346.434 53.7176C346.131 54.4429 345.979 55.2473 345.979 56.1309C345.979 57.0013 346.131 57.8058 346.434 58.5443C346.75 59.2828 347.185 59.9291 347.739 60.4829C348.307 61.0368 348.966 61.4655 349.718 61.7688C350.469 62.072 351.286 62.2237 352.17 62.2237ZM368.092 63.1535C367.064 63.1535 366.088 62.982 365.165 62.6392C364.255 62.2831 363.55 61.8281 363.048 61.2742L363.503 60.5225C363.978 61.0105 364.624 61.4259 365.442 61.7688C366.272 62.0985 367.15 62.2633 368.073 62.2633C368.996 62.2633 369.748 62.1446 370.328 61.9072C370.921 61.6566 371.356 61.327 371.633 60.9181C371.924 60.5093 372.069 60.0543 372.069 59.5532C372.069 58.9597 371.91 58.485 371.594 58.1289C371.277 57.7728 370.862 57.4893 370.348 57.2783C369.833 57.0672 369.273 56.8892 368.666 56.7442C368.06 56.5992 367.447 56.4475 366.826 56.2892C366.207 56.1177 365.639 55.9001 365.125 55.6364C364.611 55.3727 364.195 55.0166 363.879 54.5682C363.576 54.1066 363.424 53.5132 363.424 52.7878C363.424 52.1285 363.596 51.5218 363.938 50.9679C364.282 50.414 364.816 49.9656 365.541 49.6227C366.266 49.2799 367.196 49.1084 368.33 49.1084C369.095 49.1084 369.847 49.2205 370.585 49.4447C371.337 49.6688 371.977 49.9722 372.504 50.3547L372.128 51.1657C371.548 50.7701 370.921 50.4799 370.249 50.2953C369.59 50.0975 368.95 49.9986 368.33 49.9986C367.447 49.9986 366.715 50.1238 366.134 50.3744C365.554 50.625 365.125 50.9613 364.848 51.3833C364.571 51.7922 364.433 52.2537 364.433 52.768C364.433 53.3615 364.585 53.8363 364.888 54.1923C365.204 54.5484 365.62 54.8319 366.134 55.0429C366.648 55.254 367.216 55.432 367.835 55.5771C368.456 55.7221 369.069 55.8803 369.675 56.0518C370.282 56.2101 370.842 56.4211 371.356 56.6848C371.871 56.9485 372.286 57.3046 372.603 57.7531C372.919 58.2015 373.077 58.7817 373.077 59.4939C373.077 60.1401 372.899 60.7467 372.543 61.3138C372.187 61.8677 371.641 62.3161 370.901 62.6589C370.177 62.9887 369.24 63.1535 368.092 63.1535Z" fill="#907636"/>
</g>
<defs>
<clipPath id="clip0_131_928">
<rect width="388.218" height="68" fill="white" transform="translate(0.890625)"/>
</clipPath>
</defs>
</svg>
