<?xml version="1.0" standalone="no"?>
<!DOCTYPE svg PUBLIC "-//W3C//DTD SVG 20010904//EN"
 "http://www.w3.org/TR/2001/REC-SVG-20010904/DTD/svg10.dtd">
<svg version="1.0" xmlns="http://www.w3.org/2000/svg"
 width="740.000000pt" height="740.000000pt" viewBox="0 0 740.000000 740.000000"
 preserveAspectRatio="xMidYMid meet">

<g transform="translate(0.000000,740.000000) scale(0.100000,-0.100000)"
fill="#000000" stroke="none">
<path d="M4254 6805 c-21 -28 -28 -51 -33 -104 -6 -58 -11 -74 -38 -105 -49
-55 -68 -130 -68 -266 0 -94 4 -128 24 -187 l23 -72 -15 -133 c-9 -73 -19
-190 -23 -260 -4 -71 -11 -128 -16 -128 -5 0 -6 -6 -1 -12 4 -7 11 -44 14 -83
5 -56 6 -44 8 65 3 243 34 542 56 534 12 -5 71 113 124 247 43 110 54 182 49
317 -3 100 -8 125 -28 167 -14 27 -30 51 -37 53 -6 1 -24 -13 -39 -33z m82
-76 c12 -47 15 -93 12 -179 -6 -133 -27 -209 -110 -380 l-50 -105 -24 49 c-67
144 -53 376 31 476 31 37 35 49 35 97 0 57 9 84 43 120 20 22 21 22 34 4 7
-11 20 -48 29 -82z"/>
<path d="M4267 6650 c-4 -47 -6 -121 -5 -165 1 -65 3 -53 10 60 9 159 6 234
-5 105z"/>
<path d="M4206 6518 c-13 -144 -16 -222 -7 -203 8 20 23 265 16 265 -2 0 -6
-28 -9 -62z"/>
<path d="M3716 6353 c-15 -15 -5 -125 17 -187 14 -36 22 -77 19 -94 -5 -37 53
-184 103 -259 19 -29 65 -84 101 -122 36 -39 81 -99 100 -133 20 -35 32 -52
29 -38 -12 43 -53 102 -136 195 -61 68 -92 115 -131 194 -48 99 -71 181 -51
181 5 0 31 -33 56 -74 26 -40 54 -80 64 -87 17 -14 -7 24 -90 145 -54 79 -77
146 -77 220 l0 51 43 -85 c41 -81 142 -240 153 -240 2 0 -12 26 -33 58 -51 79
-123 205 -123 215 0 12 107 -81 155 -134 47 -52 109 -184 135 -283 10 -42 22
-122 26 -178 4 -57 10 -112 15 -123 9 -23 3 79 -12 202 -19 165 -88 321 -182
415 -115 115 -174 167 -181 161z"/>
<path d="M2891 6246 c-9 -11 -11 -38 -6 -100 l7 -85 -38 -39 c-22 -22 -51 -55
-65 -73 l-26 -32 -37 74 c-21 41 -42 80 -48 87 -15 18 -38 15 -38 -5 0 -26 38
-84 59 -90 21 -5 55 -59 46 -72 -3 -6 -26 -13 -52 -17 -32 -5 -47 -12 -50 -25
-3 -12 -14 -19 -28 -19 -13 0 -30 -3 -39 -6 -12 -5 -16 0 -16 21 0 34 -17 65
-35 65 -21 0 -29 -44 -13 -77 11 -22 19 -27 38 -24 14 2 41 5 60 5 32 1 36 -2
62 -56 14 -31 31 -59 37 -62 6 -4 -1 13 -14 36 -14 24 -25 51 -25 61 0 16 9
14 67 -18 37 -20 61 -30 55 -22 -7 8 -42 29 -78 47 -36 17 -63 37 -61 43 2 6
28 16 58 23 l54 12 29 -36 c17 -21 50 -56 74 -79 l45 -43 -42 0 c-58 0 -100
-20 -146 -69 -67 -71 -123 -88 -185 -56 -49 25 -112 30 -153 10 -42 -19 -77
-70 -77 -109 0 -31 -16 -35 -25 -6 -15 49 69 151 143 174 13 4 27 19 32 32 5
13 20 28 33 33 30 12 104 -2 156 -29 22 -11 44 -20 48 -20 20 2 -107 58 -142
64 -50 9 -95 -7 -102 -35 -3 -11 -26 -31 -52 -44 -56 -28 -95 -68 -116 -118
-18 -43 -11 -83 16 -98 17 -9 19 -6 19 32 0 81 74 139 160 124 41 -7 65 -25
33 -25 -33 0 -82 -39 -104 -82 -50 -98 -17 -230 81 -322 60 -56 72 -58 59 -11
-9 32 -7 39 15 66 24 28 31 45 38 93 2 12 16 24 37 31 44 14 79 56 86 103 24
142 25 145 82 201 52 51 57 53 97 48 l41 -5 -82 85 c-46 46 -83 88 -83 93 0
14 74 117 93 129 14 9 19 8 23 -6 13 -40 57 -144 60 -140 2 2 -10 37 -26 78
-33 87 -28 96 44 75 25 -8 44 -10 41 -5 -9 13 -81 30 -99 23 -20 -8 -21 30 -4
123 12 68 3 98 -21 69z m-87 -554 c-59 -54 -63 -61 -79 -150 -21 -122 -33
-139 -117 -166 -13 -4 -18 -16 -18 -40 0 -25 -9 -46 -31 -71 -26 -29 -30 -41
-25 -66 l6 -30 -30 21 c-92 66 -139 227 -92 320 28 57 73 80 157 80 64 0 77 3
113 30 23 16 46 38 52 50 10 19 73 59 95 60 6 0 -8 -17 -31 -38z"/>
<path d="M2551 5541 c-43 -60 -71 -135 -70 -186 l2 -50 7 55 c8 59 38 135 71
181 11 16 18 29 15 29 -2 0 -14 -13 -25 -29z"/>
<path d="M3197 6172 c-10 -10 -17 -25 -17 -32 0 -8 -12 -27 -27 -44 l-28 -29
27 19 c15 10 33 36 41 57 13 32 20 37 47 37 105 0 169 -92 154 -222 l-7 -61
-18 35 c-23 45 -83 95 -129 108 -117 33 -222 -19 -251 -124 -15 -52 0 -185 31
-276 23 -67 110 -240 141 -281 10 -13 -14 41 -54 121 -127 252 -148 411 -66
505 23 25 43 36 82 44 117 24 197 -19 249 -134 l22 -50 8 80 c10 97 4 148 -23
192 -39 63 -146 95 -182 55z"/>
<path d="M3251 6101 c26 -4 53 -11 61 -16 8 -6 5 -2 -5 8 -13 11 -34 17 -61
16 l-41 -2 46 -6z"/>
<path d="M3209 5963 c-21 -76 -18 -206 8 -288 12 -38 29 -79 37 -90 8 -11 4 8
-10 42 -40 101 -50 202 -31 297 19 90 17 110 -4 39z"/>
<path d="M4172 5930 c-20 -140 -25 -345 -13 -499 11 -141 34 -271 53 -301 7
-11 8 -10 3 6 -53 197 -69 552 -34 775 6 38 9 77 7 86 -2 10 -9 -20 -16 -67z"/>
<path d="M3109 5959 c-17 -64 -15 -185 5 -253 21 -73 29 -70 10 4 -16 63 -19
199 -4 249 5 19 8 37 5 39 -2 2 -9 -16 -16 -39z"/>
<path d="M3160 5968 c-6 -18 -13 -69 -15 -113 l-4 -80 8 70 c5 39 14 88 20
109 13 49 8 59 -9 14z"/>
<path d="M2849 5894 c-11 -14 -10 -18 6 -30 10 -8 27 -14 37 -14 23 0 35 27
19 43 -9 9 -12 9 -9 1 3 -12 0 -14 -27 -14 -21 0 -19 18 3 23 14 4 14 5 1 6
-9 0 -23 -6 -30 -15z"/>
<path d="M2898 5815 c6 -11 25 -36 44 -56 18 -19 27 -28 21 -19 -16 21 -17 33
-1 24 7 -4 8 -3 4 5 -4 6 -11 9 -16 6 -5 -3 -20 9 -35 27 -15 18 -22 24 -17
13z"/>
<path d="M2920 5816 c0 -2 8 -10 18 -17 15 -13 16 -12 3 4 -13 16 -21 21 -21
13z"/>
<path d="M2483 5683 c9 -2 23 -2 30 0 6 3 -1 5 -18 5 -16 0 -22 -2 -12 -5z"/>
<path d="M3454 5621 c10 -15 106 -79 186 -123 111 -62 156 -116 195 -238 10
-30 26 -72 37 -93 22 -45 91 -97 127 -97 22 1 20 3 -13 15 -65 23 -103 70
-137 170 -48 142 -82 183 -204 254 -74 43 -67 52 21 26 86 -25 151 -94 174
-182 l10 -38 -4 44 c-9 94 -108 179 -233 201 -58 10 -131 37 -121 44 1 2 45
-1 97 -6 63 -5 112 -16 145 -31 112 -52 235 -183 315 -337 58 -113 60 -134 3
-50 -28 41 -65 89 -83 105 -30 27 -29 25 8 -20 47 -59 138 -194 132 -198 -2
-1 -26 -13 -53 -27 -147 -76 -238 -228 -234 -393 l1 -72 7 90 c12 168 99 300
244 370 169 81 379 112 462 68 75 -40 75 -43 -13 -130 -44 -44 -104 -92 -138
-110 -58 -31 -59 -32 -27 -33 33 0 33 0 26 -37 -21 -124 -117 -212 -323 -300
-33 -14 -44 -22 -26 -18 42 8 185 81 242 124 59 45 89 88 110 160 11 39 13 59
5 71 -9 14 0 24 54 59 57 37 164 148 164 170 0 13 -59 51 -102 67 -22 8 -59
14 -82 14 -51 0 -209 -33 -259 -55 -35 -14 -38 -14 -44 2 -67 195 -195 373
-330 460 -72 46 -94 53 -198 63 -49 5 -103 12 -119 16 -21 5 -27 4 -22 -5z"/>
<path d="M3267 5544 c-3 -5 -1 -29 3 -54 16 -82 11 -87 -26 -22 -35 62 -61 82
-51 39 14 -54 38 -209 33 -214 -3 -3 -18 4 -35 16 -40 29 -141 73 -155 68 -18
-6 63 -80 133 -122 35 -21 80 -52 100 -69 l36 -30 -25 28 c-14 16 -61 52 -105
81 -73 48 -128 95 -111 95 12 0 131 -62 149 -78 9 -8 20 -12 24 -8 4 3 0 52
-9 109 -10 56 -15 103 -13 106 3 2 18 -25 33 -60 56 -124 53 -120 48 -54 -3
33 -8 76 -11 95 l-5 35 15 -32 c8 -18 24 -85 36 -150 11 -65 25 -125 31 -133
8 -13 9 -12 4 2 -3 9 -12 61 -21 115 -25 146 -62 261 -78 237z"/>
<path d="M2830 5521 c30 -5 83 -20 118 -34 77 -32 82 -25 6 10 -34 16 -78 26
-117 28 l-62 4 55 -8z"/>
<path d="M2793 5473 c9 -2 23 -2 30 0 6 3 -1 5 -18 5 -16 0 -22 -2 -12 -5z"/>
<path d="M2833 5410 c26 -4 91 -31 145 -60 53 -28 86 -42 72 -31 -51 41 -167
93 -216 97 l-49 3 48 -9z"/>
<path d="M4132 5355 c0 -16 4 -43 8 -60 11 -42 11 -1 1 50 -7 34 -9 35 -9 10z"/>
<path d="M3517 5270 c-30 -36 -57 -116 -57 -172 0 -42 -6 -47 -27 -20 -7 9 -5
-1 7 -23 19 -38 26 -75 15 -75 -3 0 -17 12 -32 28 -19 20 -18 17 5 -13 17 -23
32 -56 35 -75 2 -19 5 19 5 86 2 124 18 207 50 251 18 24 46 30 57 13 5 -8 11
-7 21 1 43 36 182 -69 256 -192 22 -38 42 -69 45 -69 2 0 -11 28 -29 63 -61
115 -186 219 -260 215 -18 -1 -40 2 -49 6 -11 5 -24 -2 -42 -24z"/>
<path d="M4152 5245 c0 -21 25 -107 27 -90 0 6 -6 33 -13 60 -8 28 -14 41 -14
30z"/>
<path d="M3536 5219 c-3 -17 -5 -50 -5 -73 1 -30 4 -23 10 29 8 74 6 97 -5 44z"/>
<path d="M3575 5160 c2 -47 8 -96 14 -110 9 -22 10 -21 5 12 -3 20 -10 69 -14
110 l-9 73 4 -85z"/>
<path d="M3370 5066 c0 -2 8 -10 18 -17 15 -13 16 -12 3 4 -13 16 -21 21 -21
13z"/>
<path d="M3657 4933 c-17 -16 -4 -33 28 -39 39 -7 67 8 58 32 -5 14 -73 20
-86 7z m78 -12 c10 -17 -10 -20 -35 -5 l-25 13 27 1 c15 0 29 -4 33 -9z"/>
<path d="M3781 4908 c-4 -13 -5 -75 -2 -138 l6 -115 6 90 c4 50 10 109 14 131
8 47 -9 71 -24 32z"/>
<path d="M4018 4893 c-9 -10 -19 -29 -23 -43 -4 -14 -19 -38 -32 -54 -46 -55
-103 -196 -103 -255 0 -28 10 -4 20 47 13 70 63 168 109 217 21 22 44 51 51
64 15 30 -1 48 -22 24z"/>
<path d="M4180 4853 c-72 -48 -185 -162 -238 -242 -23 -35 -42 -68 -42 -73 0
-6 19 18 42 52 55 82 135 168 217 232 79 62 86 68 80 68 -2 0 -29 -16 -59 -37z"/>
<path d="M3471 4864 c0 -11 3 -14 6 -6 3 7 2 16 -1 19 -3 4 -6 -2 -5 -13z"/>
<path d="M3112 4849 c-23 -4 -48 -11 -54 -15 -7 -5 -29 -7 -50 -5 -44 3 -148
-40 -148 -61 0 -22 60 -75 110 -97 27 -13 57 -37 75 -62 87 -120 306 -224 489
-234 l71 -4 -70 10 c-117 16 -186 37 -284 86 -77 38 -111 63 -178 130 -46 46
-90 83 -98 83 -9 0 -36 19 -60 41 -52 48 -49 58 21 85 49 19 92 15 151 -12 21
-10 43 -19 48 -21 12 -5 -24 25 -45 37 -22 12 -7 22 47 31 181 30 366 -19 506
-133 l62 -51 -45 47 c-55 58 -177 121 -275 141 -76 16 -204 18 -273 4z"/>
<path d="M3716 4810 c6 -55 62 -246 70 -238 2 3 -5 31 -17 64 -11 32 -29 97
-39 144 -16 70 -18 75 -14 30z"/>
<path d="M3691 4817 c-2 -56 52 -268 65 -254 2 1 -6 32 -17 67 -12 36 -27 99
-34 140 -7 41 -13 62 -14 47z"/>
<path d="M3009 4750 c52 -11 97 -18 99 -16 5 5 -93 26 -148 31 -25 3 -3 -4 49
-15z"/>
<path d="M3280 4722 c0 -29 21 -42 71 -42 25 0 61 -5 80 -12 46 -16 183 -97
250 -148 l54 -41 -48 45 c-52 49 -222 150 -272 162 -16 4 -44 18 -61 31 -37
28 -74 31 -74 5z"/>
<path d="M3515 4730 c-10 -17 14 -39 56 -52 38 -11 76 -45 158 -143 18 -22 30
-33 26 -25 -15 29 -79 106 -139 168 -58 59 -87 74 -101 52z"/>
<path d="M4074 4646 c-33 -24 -77 -63 -99 -86 -30 -33 -22 -27 35 21 41 35 89
74 105 86 17 12 27 23 24 23 -4 0 -33 -20 -65 -44z"/>
<path d="M3792 4630 c0 -14 2 -19 5 -12 2 6 2 18 0 25 -3 6 -5 1 -5 -13z"/>
<path d="M4418 4595 c100 -39 203 -96 244 -135 31 -30 37 -43 36 -73 -3 -83
-155 -154 -358 -167 l-115 -7 95 -1 c58 -1 119 4 155 13 79 20 199 79 223 110
30 38 15 90 -42 141 -49 45 -209 128 -266 138 -24 4 -14 -2 28 -19z"/>
<path d="M3421 4565 c86 -18 166 -46 235 -84 30 -16 51 -24 45 -17 -30 36
-202 102 -288 110 l-58 5 66 -14z"/>
<path d="M4288 4553 c6 -2 18 -2 25 0 6 3 1 5 -13 5 -14 0 -19 -2 -12 -5z"/>
<path d="M4235 4503 c46 -6 193 -33 213 -39 14 -5 14 -4 2 4 -22 15 -163 42
-207 41 -33 -2 -34 -2 -8 -6z"/>
<path d="M4020 4438 c64 -39 124 -114 139 -174 23 -91 5 -222 -38 -275 -13
-17 -17 -33 -14 -60 5 -31 1 -42 -21 -64 -20 -20 -26 -36 -26 -68 0 -124 -106
-112 -180 21 -13 22 -28 38 -35 36 -20 -8 -86 74 -120 150 -42 93 -57 155 -57
246 -1 68 -2 71 -10 35 -24 -109 63 -357 150 -425 l25 -20 -6 -143 c-8 -195
-57 -443 -98 -500 -19 -26 -18 -26 26 8 76 58 276 101 426 93 74 -5 100 -11
163 -41 89 -42 198 -139 178 -159 -9 -9 -28 -6 -84 12 -108 35 -204 33 -289
-7 -83 -39 -135 -91 -183 -183 -21 -41 -55 -92 -75 -114 -26 -27 -30 -35 -14
-27 29 15 62 60 108 149 76 145 210 216 367 191 97 -15 98 -18 13 -47 -99 -35
-167 -78 -270 -172 -44 -40 -107 -91 -139 -112 -62 -40 -67 -49 -13 -22 39 20
100 69 184 147 115 105 217 155 338 166 93 8 97 25 23 95 -140 132 -289 162
-548 111 -69 -14 -125 -25 -126 -25 -1 0 9 44 22 98 28 113 44 237 44 340 0
39 3 72 7 72 4 0 23 -15 43 -34 49 -48 82 -55 114 -22 20 19 26 35 26 70 0 35
6 51 26 71 20 20 25 34 23 63 -2 25 4 50 18 73 50 79 57 244 15 324 -31 60
-138 155 -174 155 -7 0 12 -15 42 -32z m-154 -625 c22 -85 -31 -497 -72 -560
-17 -27 -39 -31 -29 -5 15 40 55 234 65 317 5 50 10 132 10 183 0 90 12 121
26 65z"/>
<path d="M4203 4444 c54 -7 130 -22 169 -33 91 -26 102 -19 14 8 -65 20 -206
42 -256 40 -14 -1 19 -7 73 -15z"/>
<path d="M3295 4341 c-91 -53 -202 -190 -251 -309 -27 -66 -30 -102 -10 -102
12 0 13 -7 5 -32 -17 -60 -1 -156 28 -165 7 -3 28 18 48 46 42 58 70 76 196
126 52 20 111 48 132 61 38 25 177 162 177 175 0 4 -35 -29 -77 -73 -80 -82
-114 -103 -277 -169 -83 -34 -135 -72 -163 -120 -24 -40 -40 -36 -53 13 -21
75 5 151 90 263 29 39 41 59 26 46 -14 -14 -43 -50 -63 -80 -38 -56 -51 -71
-66 -71 -26 0 57 169 128 259 48 61 121 122 176 145 19 9 27 15 19 16 -8 0
-37 -13 -65 -29z"/>
<path d="M4285 4354 c78 -17 105 -16 40 2 -27 7 -61 13 -75 13 -14 -1 2 -7 35
-15z"/>
<path d="M3821 4289 c-1 -72 9 -151 30 -233 18 -66 20 -32 3 40 -9 38 -20 114
-24 169 l-7 100 -2 -76z"/>
<path d="M3771 4312 c-7 -20 -14 -80 -16 -132 l-3 -95 7 90 c4 50 13 107 20
128 7 21 11 40 9 43 -3 2 -10 -13 -17 -34z"/>
<path d="M3861 4340 c-2 -39 64 -238 75 -227 3 2 -3 21 -13 43 -9 21 -27 75
-39 119 -12 44 -23 73 -23 65z"/>
<path d="M3485 4270 c-38 -17 -83 -41 -100 -54 -22 -18 -7 -13 55 17 47 24 99
47 115 54 17 6 23 11 15 12 -8 0 -46 -13 -85 -29z"/>
<path d="M3233 4078 c-53 -60 -153 -241 -153 -278 0 -8 15 19 33 61 19 42 59
113 90 157 31 45 55 82 53 82 -1 0 -12 -10 -23 -22z"/>
<path d="M4060 4024 c0 -5 7 -18 15 -28 8 -11 15 -16 15 -10 0 5 -7 18 -15 28
-8 11 -15 16 -15 10z"/>
<path d="M3811 3989 c-1 -19 29 -122 34 -117 2 2 -5 32 -15 68 -10 36 -19 58
-19 49z"/>
<path d="M3960 3987 c0 -18 50 -104 71 -122 l24 -20 -17 21 c-10 11 -31 45
-48 75 -16 30 -30 50 -30 46z"/>
<path d="M3530 3865 c-18 -19 -37 -32 -41 -29 -27 16 -119 -98 -184 -226 -36
-73 -85 -218 -85 -256 0 -27 -9 -30 -30 -11 -8 6 -7 3 3 -9 13 -16 17 -40 17
-110 0 -93 19 -194 46 -245 31 -60 5 -39 -60 48 -95 129 -101 134 -59 65 40
-67 170 -223 190 -230 7 -2 -3 20 -22 48 -58 87 -80 174 -80 320 1 156 16 215
96 377 42 86 75 137 111 175 42 43 52 50 56 35 3 -16 8 -13 27 15 25 37 66 63
87 55 20 -7 35 -63 57 -221 43 -293 35 -467 -29 -618 -16 -40 -28 -74 -25 -76
8 -9 57 114 73 183 30 134 18 401 -29 645 -21 106 -59 127 -119 65z"/>
<path d="M3476 3775 c-9 -26 -7 -32 5 -12 6 10 9 21 6 23 -2 3 -7 -2 -11 -11z"/>
<path d="M3440 3665 c-7 -25 -10 -48 -8 -51 3 -2 11 16 17 42 15 61 8 68 -9 9z"/>
<path d="M2722 3534 c-64 -24 -75 -48 -70 -147 4 -60 13 -103 37 -163 28 -74
96 -193 124 -219 6 -5 0 6 -12 25 -44 70 -99 187 -120 254 -36 118 -23 221 29
230 8 1 25 7 37 14 66 36 242 -22 368 -123 61 -48 75 -51 25 -5 -25 23 -91 64
-148 92 -118 58 -194 70 -270 42z"/>
<path d="M3374 3485 c-12 -19 -14 -36 -9 -75 4 -32 1 -87 -10 -152 -20 -115
-16 -233 9 -308 9 -25 13 -31 10 -15 -29 152 -30 194 -8 328 13 76 22 104 40
122 27 27 39 65 30 100 -8 33 -40 33 -62 0z"/>
<path d="M2782 3473 c18 -15 45 -36 59 -47 14 -12 3 0 -24 27 -26 26 -53 47
-58 47 -6 0 4 -12 23 -27z"/>
<path d="M3032 3359 c41 -41 92 -94 112 -119 l38 -45 -32 49 c-34 50 -141 160
-174 178 -10 6 15 -23 56 -63z"/>
<path d="M3264 3365 c-4 -15 -2 -43 4 -63 6 -21 13 -69 17 -109 7 -91 28 -193
55 -267 30 -79 33 -66 5 19 -13 39 -31 117 -40 174 -15 87 -16 112 -5 155 15
65 11 110 -12 114 -12 2 -19 -5 -24 -23z"/>
<path d="M3513 3303 c-42 -93 -73 -233 -71 -323 l1 -65 7 85 c11 115 32 199
74 298 19 45 33 82 30 82 -3 0 -21 -35 -41 -77z"/>
<path d="M3011 3267 c-58 -29 -54 -77 6 -77 68 0 111 54 64 80 -25 13 -41 13
-70 -3z m69 -7 c13 -9 12 -12 -4 -25 -22 -17 -81 -21 -71 -5 3 6 12 10 20 10
7 0 15 7 19 15 6 17 15 19 36 5z"/>
<path d="M3832 3164 c-29 -14 -73 -46 -100 -71 l-47 -45 49 38 c27 21 76 53
110 71 72 39 63 44 -12 7z"/>
<path d="M3992 3150 c-124 -37 -282 -128 -347 -201 -11 -12 16 5 60 38 117 87
149 104 270 145 115 39 126 50 17 18z"/>
<path d="M3085 3130 c10 -19 31 -54 46 -77 16 -23 29 -44 29 -47 0 -5 -117 72
-138 91 -23 22 -91 38 -104 25 -20 -20 10 -42 59 -42 62 0 164 -67 271 -178
l84 -87 -67 80 c-36 44 -93 121 -127 170 -69 104 -77 113 -53 65z"/>
<path d="M3571 3104 c0 -11 3 -14 6 -6 3 7 2 16 -1 19 -3 4 -6 -2 -5 -13z"/>
<path d="M3550 3030 c-7 -28 -10 -53 -8 -55 3 -3 10 18 16 47 7 28 11 53 8 55
-2 2 -9 -19 -16 -47z"/>
<path d="M2910 3046 c0 -2 30 -14 68 -27 37 -12 91 -32 120 -45 28 -13 52 -21
52 -19 0 9 -86 48 -154 71 -69 24 -86 28 -86 20z"/>
<path d="M3838 3000 c-53 -19 -128 -57 -128 -66 0 -3 19 5 43 17 23 12 71 32
107 45 36 12 58 23 50 23 -8 0 -40 -8 -72 -19z"/>
<path d="M2920 2965 c-8 -2 -49 -9 -90 -15 -151 -24 -260 -101 -380 -269 -64
-90 -140 -230 -140 -258 0 -15 62 -33 116 -33 56 0 130 24 188 60 42 27 50 29
60 16 15 -20 86 -35 164 -36 110 0 281 70 365 148 20 20 37 40 37 46 0 5 -17
-9 -37 -31 -46 -49 -201 -126 -290 -144 -68 -14 -204 -2 -226 20 -16 16 42 66
138 118 44 23 77 43 72 43 -19 0 -158 -77 -218 -121 -121 -90 -229 -123 -317
-100 -23 7 -42 13 -42 15 0 23 75 160 129 235 109 152 207 236 311 265 153 43
286 40 398 -10 30 -13 57 -23 59 -21 2 2 -23 16 -56 31 -82 37 -178 53 -241
41z"/>
<path d="M3513 2900 c-32 -13 -29 -22 3 -10 75 29 167 -10 268 -113 55 -56 84
-96 127 -182 31 -61 60 -121 64 -133 6 -21 4 -23 -14 -17 -12 3 -21 5 -21 3 0
-2 20 -30 45 -63 42 -56 75 -134 75 -177 0 -21 -53 -48 -95 -48 -15 0 -49 10
-76 21 -41 18 -54 20 -75 10 -31 -14 -79 7 -89 39 -7 23 -13 24 -52 9 -40 -15
-186 23 -260 68 -76 45 -99 68 -134 128 -35 61 -37 116 -10 207 l20 63 -23
-28 c-13 -16 -23 -41 -24 -55 0 -15 -1 -52 -2 -82 -4 -95 59 -184 179 -252 82
-46 238 -208 283 -294 60 -114 125 -351 147 -534 14 -113 15 -264 5 -495 l-8
-190 -17 136 c-27 219 -74 363 -175 541 -63 112 -127 184 -194 218 -26 13 -84
27 -149 36 -128 17 -128 17 -114 3 6 -6 48 -13 94 -15 45 -2 103 -10 128 -19
92 -30 176 -127 265 -302 75 -149 116 -296 136 -483 6 -58 15 -114 20 -125 6
-11 11 -49 13 -85 2 -36 4 5 5 90 2 85 7 216 12 290 21 302 -37 681 -139 905
-34 75 -135 200 -201 251 -27 21 -50 40 -50 42 0 4 32 -5 70 -21 37 -14 104
-19 132 -8 19 7 27 5 36 -10 7 -10 23 -26 37 -35 21 -14 30 -14 55 -4 25 10
35 9 73 -9 51 -25 104 -27 152 -7 29 12 35 20 35 45 0 40 -34 129 -65 171 -17
23 -23 41 -19 57 8 29 -76 203 -139 289 -100 136 -243 210 -334 174z"/>
<path d="M2777 2876 c-9 -9 -14 -23 -10 -31 10 -28 48 -27 114 0 58 25 71 27
144 21 44 -4 117 -20 165 -35 47 -16 86 -28 88 -26 1 1 -19 11 -45 23 -64 27
-193 53 -262 53 -31 -1 -83 2 -117 5 -48 5 -64 3 -77 -10z"/>
<path d="M2970 2789 c-70 -24 -255 -116 -269 -133 -6 -6 50 18 123 54 73 37
159 74 192 83 32 8 48 15 34 15 -14 0 -50 -8 -80 -19z"/>
<path d="M3538 2770 c40 -11 111 -39 157 -63 92 -48 107 -46 22 2 -59 34 -194
81 -229 80 -13 0 10 -9 50 -19z"/>
<path d="M3409 2714 c24 -21 50 -43 58 -47 18 -11 141 -165 159 -200 9 -16 18
-26 21 -24 18 19 -182 253 -249 291 -30 17 -28 15 11 -20z"/>
<path d="M3430 2737 c0 -3 30 -22 67 -43 38 -22 115 -85 177 -144 60 -58 100
-91 88 -74 -28 40 -148 154 -203 191 -46 32 -129 76 -129 70z"/>
<path d="M3342 2605 c-2 -90 17 -161 47 -179 6 -4 1 10 -11 30 -17 29 -23 60
-28 138 l-7 101 -1 -90z"/>
<path d="M3800 2577 c0 -2 30 -30 68 -62 53 -46 59 -50 27 -16 -37 40 -95 87
-95 78z"/>
<path d="M3172 2483 c-33 -66 -122 -300 -122 -319 1 -11 16 22 34 71 18 50 51
134 73 188 42 99 48 126 15 60z"/>
<path d="M4443 2455 c-99 -30 -197 -113 -300 -250 -115 -153 -139 -229 -153
-473 -11 -184 -21 -257 -43 -297 -13 -25 -15 -19 -36 117 -12 78 -31 179 -42
223 -36 150 -152 348 -244 417 -16 12 -4 -5 27 -38 210 -224 286 -554 276
-1189 -3 -159 -2 -240 2 -180 4 61 8 216 9 345 l1 235 62 85 c33 47 93 153
133 235 40 83 99 191 132 240 63 94 236 295 254 295 6 0 29 -13 52 -29 142
-97 230 -111 374 -62 50 17 111 34 137 37 l46 7 -71 48 c-38 27 -96 68 -127
92 -177 136 -349 186 -489 142z m233 -16 c85 -25 156 -65 254 -139 41 -31 94
-69 118 -85 l43 -28 -103 -35 c-80 -28 -120 -36 -178 -36 -83 -1 -112 10 -230
84 -79 50 -126 64 -213 64 -59 0 -77 -5 -148 -41 -46 -24 -75 -34 -67 -25 107
138 221 230 313 253 57 14 143 9 211 -12z m-198 -200 l33 -11 -78 -81 c-139
-146 -228 -278 -308 -459 -25 -55 -70 -139 -101 -185 -55 -83 -82 -105 -49
-41 30 59 56 132 60 168 13 113 95 335 166 450 l22 35 -27 -30 c-53 -60 -104
-185 -152 -370 -25 -99 -50 -187 -56 -195 -6 -11 -8 -6 -4 15 4 17 10 100 16
185 15 249 41 342 119 420 49 48 138 98 200 111 41 8 110 3 159 -12z"/>
<path d="M4399 2336 c-64 -14 -161 -56 -173 -75 -4 -5 20 4 53 20 81 40 189
62 274 56 73 -6 128 -29 236 -97 36 -22 71 -40 79 -40 8 0 -7 12 -34 26 -27
14 -63 37 -81 50 -86 65 -220 88 -354 60z"/>
<path d="M4222 1978 c-62 -84 -115 -187 -174 -338 -25 -66 15 8 63 115 29 66
77 155 106 198 61 88 63 103 5 25z"/>
<path d="M3055 2368 c-19 -40 -37 -86 -40 -103 -3 -16 5 -3 18 31 14 33 34 79
46 102 12 23 19 42 16 42 -3 0 -21 -33 -40 -72z"/>
<path d="M2889 2288 c-7 -46 -13 -132 -13 -193 -1 -98 2 -115 24 -160 23 -47
27 -50 65 -51 105 -4 291 158 370 323 36 74 30 79 -9 7 -18 -34 -49 -85 -70
-113 -81 -110 -247 -229 -280 -202 -10 8 -16 9 -21 1 -12 -19 -23 -10 -46 38
-20 41 -23 61 -22 157 0 61 6 145 13 188 6 43 10 81 7 83 -2 3 -10 -33 -18
-78z"/>
<path d="M3746 2358 c39 -65 84 -129 84 -121 0 12 -77 133 -85 133 -4 0 -3 -6
1 -12z"/>
<path d="M3677 2320 c9 -22 18 -38 20 -36 5 5 -24 76 -31 76 -2 0 3 -18 11
-40z"/>
<path d="M3230 1686 c0 -2 20 -16 43 -29 61 -36 111 -95 135 -160 12 -30 33
-117 47 -193 59 -307 122 -405 318 -496 63 -29 41 -11 -35 29 -141 74 -208
175 -254 387 -62 284 -65 296 -97 343 -36 54 -157 145 -157 119z"/>
<path d="M3604 1268 c45 -90 109 -225 141 -301 64 -149 86 -183 31 -46 -78
192 -234 509 -250 509 -2 0 33 -73 78 -162z"/>
</g>
</svg>
